<svg xmlns="http://www.w3.org/2000/svg" xmlns:xlink="http://www.w3.org/1999/xlink" width="500" zoomAndPan="magnify" viewBox="0 0 375 374.999991" height="500" preserveAspectRatio="xMidYMid meet" version="1.2"><defs><clipPath id="9e2aa2c8ca"><path d="M 83.789062 117.042969 L 278.039062 117.042969 L 278.039062 215.292969 L 83.789062 215.292969 Z M 83.789062 117.042969 "/></clipPath></defs><g id="08a6f0a2f2"><rect x="0" width="375" y="0" height="374.999991" style="fill:#ffffff;fill-opacity:1;stroke:none;"/><rect x="0" width="375" y="0" height="374.999991" style="fill:#ffffff;fill-opacity:1;stroke:none;"/><g clip-rule="nonzero" clip-path="url(#9e2aa2c8ca)"><path style=" stroke:none;fill-rule:nonzero;fill:#5b3d29;fill-opacity:1;" d="M 83.425781 166.21875 C 83.429688 164.609375 83.511719 163.003906 83.671875 161.40625 C 83.832031 159.804688 84.066406 158.21875 84.382812 156.640625 C 84.699219 155.0625 85.089844 153.507812 85.558594 151.96875 C 86.027344 150.429688 86.570312 148.917969 87.1875 147.433594 C 87.804688 145.945312 88.492188 144.496094 89.25 143.078125 C 90.007812 141.660156 90.835938 140.285156 91.730469 138.945312 C 92.625 137.609375 93.582031 136.320312 94.601562 135.078125 C 95.621094 133.835938 96.703125 132.644531 97.839844 131.507812 C 98.976562 130.371094 100.167969 129.292969 101.410156 128.273438 C 102.652344 127.253906 103.941406 126.296875 105.28125 125.402344 C 106.617188 124.507812 107.992188 123.683594 109.410156 122.925781 C 110.828125 122.164062 112.28125 121.480469 113.765625 120.863281 C 115.253906 120.246094 116.765625 119.703125 118.300781 119.238281 C 119.839844 118.769531 121.398438 118.378906 122.976562 118.0625 C 124.550781 117.746094 126.140625 117.511719 127.742188 117.351562 C 129.339844 117.191406 130.945312 117.113281 132.554688 117.109375 L 228.933594 117.109375 C 230.542969 117.109375 232.148438 117.1875 233.75 117.347656 C 235.355469 117.503906 236.945312 117.742188 238.523438 118.054688 C 240.101562 118.367188 241.664062 118.757812 243.203125 119.226562 C 244.746094 119.695312 246.257812 120.234375 247.746094 120.851562 C 249.234375 121.46875 250.6875 122.15625 252.109375 122.914062 C 253.527344 123.675781 254.90625 124.5 256.246094 125.394531 C 257.585938 126.289062 258.875 127.25 260.121094 128.269531 C 261.367188 129.292969 262.558594 130.371094 263.695312 131.507812 C 264.835938 132.648438 265.914062 133.839844 266.9375 135.085938 C 267.957031 136.328125 268.914062 137.621094 269.8125 138.960938 C 270.707031 140.296875 271.53125 141.679688 272.289062 143.097656 C 273.050781 144.519531 273.738281 145.972656 274.355469 147.460938 C 274.96875 148.945312 275.511719 150.460938 275.980469 152.003906 C 276.445312 153.542969 276.835938 155.101562 277.152344 156.683594 C 277.464844 158.261719 277.703125 159.851562 277.859375 161.453125 C 278.015625 163.058594 278.097656 164.664062 278.097656 166.273438 C 278.097656 167.882812 278.015625 169.488281 277.859375 171.09375 C 277.703125 172.695312 277.464844 174.285156 277.152344 175.863281 C 276.835938 177.445312 276.445312 179.003906 275.980469 180.546875 C 275.511719 182.085938 274.96875 183.601562 274.355469 185.085938 C 273.738281 186.574219 273.050781 188.027344 272.289062 189.449219 C 271.53125 190.867188 270.707031 192.25 269.8125 193.585938 C 268.914062 194.925781 267.957031 196.21875 266.9375 197.460938 C 265.914062 198.707031 264.835938 199.898438 263.695312 201.039062 C 262.558594 202.175781 261.367188 203.257812 260.121094 204.277344 C 258.875 205.300781 257.585938 206.257812 256.246094 207.152344 C 254.90625 208.046875 253.527344 208.871094 252.109375 209.632812 C 250.6875 210.390625 249.234375 211.078125 247.746094 211.695312 C 246.257812 212.3125 244.746094 212.851562 243.203125 213.320312 C 241.664062 213.789062 240.101562 214.179688 238.523438 214.492188 C 236.945312 214.804688 235.355469 215.042969 233.75 215.199219 C 232.148438 215.359375 230.542969 215.4375 228.933594 215.4375 L 132.460938 215.4375 C 130.851562 215.433594 129.246094 215.347656 127.648438 215.1875 C 126.046875 215.023438 124.460938 214.785156 122.882812 214.464844 C 121.304688 214.148438 119.75 213.753906 118.210938 213.28125 C 116.671875 212.8125 115.160156 212.265625 113.675781 211.648438 C 112.191406 211.027344 110.742188 210.335938 109.324219 209.578125 C 107.90625 208.816406 106.53125 207.984375 105.195312 207.089844 C 103.859375 206.191406 102.574219 205.234375 101.332031 204.210938 C 100.089844 203.1875 98.902344 202.105469 97.765625 200.964844 C 96.632812 199.828125 95.554688 198.632812 94.535156 197.390625 C 93.519531 196.144531 92.5625 194.851562 91.671875 193.511719 C 90.78125 192.175781 89.957031 190.796875 89.199219 189.375 C 88.445312 187.957031 87.757812 186.503906 87.144531 185.015625 C 86.53125 183.53125 85.992188 182.015625 85.527344 180.476562 C 85.0625 178.9375 84.675781 177.378906 84.363281 175.800781 C 84.050781 174.222656 83.816406 172.632812 83.660156 171.03125 C 83.503906 169.429688 83.425781 167.828125 83.425781 166.21875 Z M 276.183594 166.21875 C 276.183594 164.671875 276.105469 163.128906 275.953125 161.589844 C 275.800781 160.046875 275.570312 158.519531 275.269531 157.003906 C 274.964844 155.484375 274.589844 153.988281 274.136719 152.507812 C 273.6875 151.027344 273.167969 149.574219 272.574219 148.144531 C 271.980469 146.714844 271.320312 145.316406 270.589844 143.953125 C 269.859375 142.589844 269.066406 141.265625 268.203125 139.980469 C 267.34375 138.691406 266.425781 137.453125 265.441406 136.257812 C 264.460938 135.058594 263.421875 133.914062 262.328125 132.820312 C 261.234375 131.726562 260.089844 130.691406 258.894531 129.707031 C 257.699219 128.726562 256.457031 127.804688 255.171875 126.945312 C 253.886719 126.085938 252.558594 125.292969 251.195312 124.5625 C 249.832031 123.832031 248.4375 123.167969 247.007812 122.578125 C 245.578125 121.984375 244.125 121.460938 242.644531 121.011719 C 241.164062 120.5625 239.664062 120.183594 238.148438 119.882812 C 236.628906 119.578125 235.101562 119.351562 233.5625 119.199219 C 232.023438 119.042969 230.480469 118.96875 228.933594 118.964844 L 132.460938 118.964844 C 130.910156 118.964844 129.363281 119.039062 127.824219 119.191406 C 126.28125 119.34375 124.75 119.570312 123.230469 119.871094 C 121.710938 120.171875 120.207031 120.550781 118.722656 121 C 117.242188 121.449219 115.785156 121.96875 114.351562 122.5625 C 112.917969 123.15625 111.519531 123.816406 110.152344 124.546875 C 108.785156 125.277344 107.457031 126.070312 106.167969 126.933594 C 104.882812 127.792969 103.636719 128.714844 102.441406 129.699219 C 101.242188 130.679688 100.09375 131.71875 99 132.816406 C 97.902344 133.910156 96.863281 135.058594 95.878906 136.257812 C 94.894531 137.453125 93.972656 138.695312 93.113281 139.984375 C 92.25 141.273438 91.457031 142.601562 90.726562 143.96875 C 89.992188 145.335938 89.332031 146.734375 88.738281 148.164062 C 88.144531 149.597656 87.625 151.054688 87.175781 152.539062 C 86.722656 154.019531 86.347656 155.523438 86.046875 157.042969 C 85.742188 158.5625 85.515625 160.09375 85.363281 161.636719 C 85.210938 163.179688 85.136719 164.722656 85.136719 166.273438 C 85.136719 167.824219 85.210938 169.371094 85.363281 170.910156 C 85.515625 172.453125 85.742188 173.984375 86.046875 175.503906 C 86.347656 177.023438 86.722656 178.527344 87.175781 180.007812 C 87.625 181.492188 88.144531 182.949219 88.738281 184.382812 C 89.332031 185.8125 89.992188 187.210938 90.726562 188.578125 C 91.457031 189.945312 92.25 191.273438 93.113281 192.5625 C 93.972656 193.851562 94.894531 195.09375 95.878906 196.292969 C 96.863281 197.488281 97.902344 198.636719 99 199.730469 C 100.09375 200.828125 101.242188 201.867188 102.441406 202.847656 C 103.636719 203.832031 104.882812 204.753906 106.167969 205.613281 C 107.457031 206.476562 108.785156 207.269531 110.152344 208 C 111.519531 208.730469 112.917969 209.394531 114.351562 209.984375 C 115.785156 210.578125 117.242188 211.097656 118.722656 211.546875 C 120.207031 212 121.710938 212.375 123.230469 212.675781 C 124.75 212.976562 126.28125 213.203125 127.824219 213.355469 C 129.363281 213.507812 130.910156 213.582031 132.460938 213.582031 L 228.933594 213.582031 C 230.480469 213.578125 232.027344 213.5 233.570312 213.347656 C 235.109375 213.191406 236.640625 212.964844 238.160156 212.660156 C 239.679688 212.355469 241.179688 211.976562 242.660156 211.523438 C 244.144531 211.074219 245.597656 210.550781 247.03125 209.953125 C 248.460938 209.359375 249.859375 208.695312 251.222656 207.964844 C 252.589844 207.230469 253.914062 206.433594 255.203125 205.574219 C 256.488281 204.710938 257.730469 203.785156 258.925781 202.800781 C 260.125 201.816406 261.269531 200.777344 262.363281 199.679688 C 263.457031 198.585938 264.496094 197.4375 265.476562 196.238281 C 266.457031 195.039062 267.378906 193.796875 268.238281 192.507812 C 269.097656 191.21875 269.890625 189.890625 270.621094 188.523438 C 271.347656 187.15625 272.007812 185.753906 272.601562 184.324219 C 273.191406 182.890625 273.710938 181.433594 274.160156 179.949219 C 274.609375 178.46875 274.984375 176.964844 275.285156 175.445312 C 275.585938 173.925781 275.8125 172.398438 275.960938 170.855469 C 276.113281 169.3125 276.1875 167.765625 276.183594 166.21875 Z M 276.183594 166.21875 "/></g><path style=" stroke:none;fill-rule:nonzero;fill:#000000;fill-opacity:1;" d="M 90.515625 166.21875 C 90.515625 164.839844 90.585938 163.46875 90.722656 162.097656 C 90.859375 160.730469 91.0625 159.371094 91.332031 158.019531 C 91.601562 156.671875 91.9375 155.335938 92.335938 154.019531 C 92.738281 152.703125 93.203125 151.410156 93.730469 150.140625 C 94.257812 148.867188 94.84375 147.625 95.496094 146.410156 C 96.144531 145.199219 96.851562 144.019531 97.617188 142.875 C 98.382812 141.730469 99.199219 140.628906 100.074219 139.5625 C 100.945312 138.5 101.871094 137.480469 102.84375 136.507812 C 103.816406 135.535156 104.835938 134.609375 105.898438 133.738281 C 106.960938 132.863281 108.066406 132.046875 109.210938 131.28125 C 110.355469 130.515625 111.535156 129.808594 112.746094 129.160156 C 113.960938 128.507812 115.203125 127.921875 116.472656 127.394531 C 117.746094 126.867188 119.039062 126.402344 120.355469 126 C 121.671875 125.601562 123.007812 125.265625 124.355469 124.996094 C 125.707031 124.726562 127.066406 124.523438 128.433594 124.386719 C 129.804688 124.25 131.175781 124.179688 132.554688 124.179688 L 228.933594 124.179688 C 230.308594 124.179688 231.683594 124.246094 233.054688 124.382812 C 234.421875 124.515625 235.785156 124.71875 237.132812 124.984375 C 238.484375 125.253906 239.820312 125.589844 241.136719 125.988281 C 242.453125 126.386719 243.75 126.851562 245.019531 127.378906 C 246.292969 127.90625 247.535156 128.492188 248.75 129.140625 C 249.964844 129.792969 251.144531 130.5 252.289062 131.261719 C 253.433594 132.027344 254.539062 132.847656 255.601562 133.722656 C 256.667969 134.59375 257.683594 135.519531 258.660156 136.492188 C 259.632812 137.464844 260.554688 138.484375 261.429688 139.546875 C 262.304688 140.613281 263.121094 141.71875 263.886719 142.863281 C 264.652344 144.007812 265.359375 145.1875 266.007812 146.402344 C 266.65625 147.613281 267.246094 148.859375 267.773438 150.128906 C 268.300781 151.402344 268.761719 152.695312 269.160156 154.015625 C 269.5625 155.332031 269.894531 156.664062 270.164062 158.015625 C 270.433594 159.367188 270.632812 160.726562 270.769531 162.097656 C 270.90625 163.46875 270.972656 164.839844 270.972656 166.21875 C 270.972656 167.59375 270.90625 168.96875 270.769531 170.339844 C 270.632812 171.707031 270.433594 173.070312 270.164062 174.417969 C 269.894531 175.769531 269.5625 177.105469 269.160156 178.421875 C 268.761719 179.738281 268.300781 181.035156 267.773438 182.304688 C 267.246094 183.578125 266.65625 184.820312 266.007812 186.035156 C 265.359375 187.25 264.652344 188.429688 263.886719 189.574219 C 263.121094 190.71875 262.304688 191.824219 261.429688 192.886719 C 260.554688 193.953125 259.632812 194.96875 258.660156 195.945312 C 257.683594 196.917969 256.667969 197.839844 255.601562 198.714844 C 254.539062 199.589844 253.433594 200.40625 252.289062 201.171875 C 251.144531 201.9375 249.964844 202.644531 248.75 203.292969 C 247.535156 203.941406 246.292969 204.53125 245.019531 205.058594 C 243.75 205.585938 242.453125 206.046875 241.136719 206.445312 C 239.820312 206.847656 238.484375 207.179688 237.132812 207.449219 C 235.785156 207.71875 234.421875 207.917969 233.054688 208.054688 C 231.683594 208.191406 230.308594 208.257812 228.933594 208.257812 L 132.460938 208.257812 C 131.085938 208.253906 129.714844 208.179688 128.347656 208.042969 C 126.980469 207.90625 125.621094 207.699219 124.273438 207.425781 C 122.925781 207.15625 121.597656 206.820312 120.28125 206.417969 C 118.96875 206.015625 117.675781 205.550781 116.40625 205.019531 C 115.136719 204.492188 113.898438 203.902344 112.6875 203.253906 C 111.476562 202.601562 110.300781 201.894531 109.160156 201.128906 C 108.015625 200.363281 106.914062 199.542969 105.855469 198.671875 C 104.792969 197.796875 103.777344 196.875 102.804688 195.902344 C 101.835938 194.925781 100.914062 193.910156 100.042969 192.847656 C 99.171875 191.78125 98.355469 190.679688 97.589844 189.535156 C 96.828125 188.394531 96.121094 187.214844 95.476562 186.003906 C 94.828125 184.789062 94.242188 183.546875 93.714844 182.277344 C 93.1875 181.007812 92.726562 179.714844 92.328125 178.402344 C 91.929688 177.085938 91.59375 175.753906 91.324219 174.40625 C 91.058594 173.058594 90.855469 171.699219 90.71875 170.332031 C 90.582031 168.964844 90.515625 167.59375 90.515625 166.21875 Z M 269.117188 166.21875 C 269.113281 164.902344 269.046875 163.589844 268.917969 162.28125 C 268.789062 160.972656 268.59375 159.671875 268.335938 158.382812 C 268.078125 157.09375 267.757812 155.816406 267.375 154.558594 C 266.992188 153.300781 266.546875 152.0625 266.042969 150.847656 C 265.539062 149.632812 264.976562 148.445312 264.355469 147.285156 C 263.734375 146.125 263.058594 145 262.328125 143.90625 C 261.597656 142.8125 260.8125 141.757812 259.976562 140.738281 C 259.144531 139.722656 258.261719 138.75 257.332031 137.820312 C 256.402344 136.890625 255.425781 136.007812 254.410156 135.171875 C 253.394531 134.335938 252.339844 133.554688 251.246094 132.824219 C 250.152344 132.089844 249.023438 131.414062 247.863281 130.796875 C 246.703125 130.175781 245.515625 129.613281 244.300781 129.105469 C 243.085938 128.601562 241.851562 128.160156 240.589844 127.777344 C 239.332031 127.394531 238.058594 127.074219 236.769531 126.816406 C 235.476562 126.558594 234.179688 126.363281 232.871094 126.230469 C 231.558594 126.101562 230.25 126.035156 228.933594 126.035156 L 132.460938 126.035156 C 131.144531 126.035156 129.832031 126.097656 128.523438 126.226562 C 127.210938 126.355469 125.910156 126.550781 124.621094 126.804688 C 123.332031 127.0625 122.054688 127.382812 120.796875 127.765625 C 119.535156 128.144531 118.300781 128.589844 117.082031 129.09375 C 115.867188 129.597656 114.679688 130.15625 113.519531 130.777344 C 112.359375 131.398438 111.230469 132.074219 110.136719 132.804688 C 109.042969 133.535156 107.984375 134.320312 106.96875 135.15625 C 105.949219 135.988281 104.976562 136.871094 104.046875 137.804688 C 103.117188 138.734375 102.234375 139.707031 101.398438 140.726562 C 100.5625 141.742188 99.78125 142.796875 99.050781 143.894531 C 98.316406 144.988281 97.640625 146.113281 97.023438 147.273438 C 96.402344 148.4375 95.839844 149.625 95.335938 150.839844 C 94.832031 152.054688 94.390625 153.292969 94.007812 154.554688 C 93.625 155.8125 93.304688 157.085938 93.046875 158.378906 C 92.792969 159.667969 92.597656 160.96875 92.46875 162.277344 C 92.339844 163.589844 92.277344 164.902344 92.277344 166.21875 C 92.277344 167.535156 92.339844 168.847656 92.46875 170.15625 C 92.597656 171.464844 92.792969 172.765625 93.046875 174.058594 C 93.304688 175.347656 93.625 176.625 94.007812 177.882812 C 94.390625 179.140625 94.832031 180.378906 95.335938 181.59375 C 95.839844 182.8125 96.402344 184 97.023438 185.160156 C 97.640625 186.320312 98.316406 187.449219 99.050781 188.542969 C 99.78125 189.636719 100.5625 190.691406 101.398438 191.710938 C 102.234375 192.726562 103.117188 193.703125 104.046875 194.632812 C 104.976562 195.5625 105.949219 196.445312 106.96875 197.28125 C 107.984375 198.117188 109.042969 198.898438 110.136719 199.628906 C 111.230469 200.359375 112.359375 201.035156 113.519531 201.65625 C 114.679688 202.277344 115.867188 202.839844 117.082031 203.34375 C 118.300781 203.847656 119.535156 204.289062 120.796875 204.671875 C 122.054688 205.054688 123.332031 205.375 124.621094 205.628906 C 125.910156 205.886719 127.210938 206.078125 128.523438 206.207031 C 129.832031 206.335938 131.144531 206.402344 132.460938 206.402344 L 228.933594 206.402344 C 230.25 206.402344 231.5625 206.335938 232.871094 206.207031 C 234.179688 206.074219 235.480469 205.882812 236.769531 205.625 C 238.058594 205.367188 239.335938 205.046875 240.59375 204.664062 C 241.851562 204.28125 243.089844 203.835938 244.304688 203.332031 C 245.519531 202.828125 246.707031 202.265625 247.867188 201.644531 C 249.027344 201.027344 250.15625 200.351562 251.25 199.617188 C 252.34375 198.886719 253.398438 198.105469 254.414062 197.269531 C 255.433594 196.433594 256.40625 195.550781 257.335938 194.621094 C 258.265625 193.691406 259.148438 192.71875 259.984375 191.699219 C 260.820312 190.683594 261.601562 189.628906 262.332031 188.535156 C 263.0625 187.441406 263.742188 186.3125 264.359375 185.152344 C 264.980469 183.992188 265.542969 182.804688 266.046875 181.589844 C 266.550781 180.375 266.996094 179.136719 267.378906 177.878906 C 267.761719 176.621094 268.082031 175.34375 268.339844 174.054688 C 268.597656 172.765625 268.789062 171.464844 268.921875 170.15625 C 269.050781 168.847656 269.117188 167.535156 269.117188 166.21875 Z M 269.117188 166.21875 "/><path style=" stroke:none;fill-rule:nonzero;fill:#5b3d29;fill-opacity:1;" d="M 97.582031 166.21875 C 97.585938 165.074219 97.640625 163.929688 97.757812 162.792969 C 97.871094 161.652344 98.039062 160.523438 98.265625 159.402344 C 98.488281 158.277344 98.769531 157.167969 99.101562 156.074219 C 99.433594 154.980469 99.820312 153.902344 100.261719 152.847656 C 100.699219 151.789062 101.1875 150.757812 101.730469 149.746094 C 102.269531 148.738281 102.859375 147.757812 103.492188 146.808594 C 104.128906 145.855469 104.8125 144.9375 105.539062 144.054688 C 106.265625 143.167969 107.03125 142.320312 107.84375 141.511719 C 108.652344 140.703125 109.5 139.9375 110.382812 139.210938 C 111.269531 138.484375 112.1875 137.800781 113.140625 137.167969 C 114.089844 136.53125 115.070312 135.941406 116.082031 135.402344 C 117.089844 134.863281 118.125 134.375 119.179688 133.933594 C 120.238281 133.496094 121.3125 133.113281 122.410156 132.777344 C 123.503906 132.445312 124.613281 132.167969 125.734375 131.941406 C 126.859375 131.71875 127.988281 131.550781 129.128906 131.4375 C 130.265625 131.324219 131.410156 131.265625 132.554688 131.265625 L 228.933594 131.265625 C 230.0625 131.292969 231.183594 131.371094 232.304688 131.507812 C 233.425781 131.640625 234.539062 131.832031 235.640625 132.074219 C 236.742188 132.316406 237.828125 132.609375 238.902344 132.957031 C 239.976562 133.304688 241.03125 133.703125 242.066406 134.152344 C 243.101562 134.605469 244.113281 135.101562 245.097656 135.648438 C 246.085938 136.199219 247.042969 136.792969 247.972656 137.433594 C 248.902344 138.074219 249.796875 138.757812 250.660156 139.484375 C 251.523438 140.210938 252.351562 140.976562 253.136719 141.785156 C 253.925781 142.59375 254.675781 143.4375 255.382812 144.316406 C 256.089844 145.195312 256.753906 146.105469 257.371094 147.050781 C 257.988281 147.992188 258.5625 148.964844 259.085938 149.964844 C 259.613281 150.964844 260.085938 151.984375 260.511719 153.03125 C 260.9375 154.074219 261.3125 155.140625 261.636719 156.21875 C 261.957031 157.300781 262.230469 158.394531 262.445312 159.503906 C 262.664062 160.609375 262.824219 161.726562 262.933594 162.847656 C 263.042969 163.972656 263.097656 165.097656 263.097656 166.226562 C 263.097656 167.355469 263.042969 168.480469 262.933594 169.605469 C 262.824219 170.726562 262.664062 171.84375 262.445312 172.949219 C 262.230469 174.058594 261.957031 175.152344 261.636719 176.234375 C 261.3125 177.316406 260.9375 178.378906 260.511719 179.421875 C 260.085938 180.46875 259.613281 181.492188 259.085938 182.488281 C 258.5625 183.488281 257.988281 184.460938 257.371094 185.402344 C 256.753906 186.347656 256.089844 187.257812 255.382812 188.140625 C 254.675781 189.019531 253.925781 189.863281 253.136719 190.667969 C 252.351562 191.476562 251.523438 192.242188 250.660156 192.96875 C 249.796875 193.699219 248.902344 194.382812 247.972656 195.023438 C 247.042969 195.664062 246.085938 196.257812 245.097656 196.804688 C 244.113281 197.351562 243.101562 197.851562 242.066406 198.300781 C 241.03125 198.75 239.976562 199.148438 238.902344 199.496094 C 237.828125 199.84375 236.742188 200.140625 235.640625 200.382812 C 234.539062 200.625 233.425781 200.8125 232.304688 200.949219 C 231.183594 201.082031 230.0625 201.164062 228.933594 201.1875 L 132.460938 201.1875 C 131.316406 201.183594 130.175781 201.125 129.039062 201.007812 C 127.902344 200.894531 126.773438 200.722656 125.652344 200.496094 C 124.535156 200.269531 123.425781 199.988281 122.335938 199.652344 C 121.242188 199.316406 120.167969 198.929688 119.113281 198.492188 C 118.058594 198.050781 117.027344 197.558594 116.019531 197.019531 C 115.011719 196.476562 114.035156 195.886719 113.085938 195.25 C 112.136719 194.613281 111.21875 193.933594 110.335938 193.207031 C 109.457031 192.480469 108.609375 191.710938 107.804688 190.902344 C 106.996094 190.09375 106.230469 189.246094 105.507812 188.363281 C 104.78125 187.476562 104.101562 186.558594 103.46875 185.609375 C 102.832031 184.660156 102.246094 183.679688 101.710938 182.671875 C 101.171875 181.660156 100.683594 180.628906 100.246094 179.574219 C 99.808594 178.515625 99.421875 177.441406 99.089844 176.347656 C 98.757812 175.253906 98.480469 174.148438 98.257812 173.027344 C 98.035156 171.90625 97.867188 170.777344 97.753906 169.640625 C 97.640625 168.5 97.582031 167.359375 97.582031 166.21875 Z M 262.03125 166.21875 C 262.027344 165.132812 261.972656 164.054688 261.867188 162.976562 C 261.761719 161.898438 261.601562 160.824219 261.386719 159.761719 C 261.175781 158.699219 260.910156 157.652344 260.597656 156.613281 C 260.28125 155.578125 259.914062 154.558594 259.5 153.558594 C 259.085938 152.558594 258.621094 151.578125 258.109375 150.625 C 257.601562 149.667969 257.042969 148.738281 256.441406 147.839844 C 255.839844 146.9375 255.191406 146.070312 254.503906 145.230469 C 253.816406 144.394531 253.089844 143.589844 252.324219 142.824219 C 251.558594 142.058594 250.757812 141.332031 249.917969 140.644531 C 249.082031 139.957031 248.210938 139.3125 247.3125 138.710938 C 246.410156 138.109375 245.484375 137.550781 244.527344 137.039062 C 243.570312 136.527344 242.59375 136.066406 241.59375 135.648438 C 240.589844 135.234375 239.574219 134.871094 238.535156 134.554688 C 237.5 134.238281 236.449219 133.976562 235.386719 133.761719 C 234.324219 133.550781 233.253906 133.390625 232.175781 133.285156 C 231.097656 133.175781 230.015625 133.121094 228.933594 133.121094 L 132.460938 133.121094 C 131.359375 133.09375 130.261719 133.125 129.164062 133.207031 C 128.066406 133.289062 126.972656 133.429688 125.890625 133.621094 C 124.804688 133.8125 123.734375 134.058594 122.675781 134.359375 C 121.617188 134.65625 120.574219 135.007812 119.550781 135.410156 C 118.523438 135.816406 117.523438 136.269531 116.542969 136.769531 C 115.5625 137.273438 114.613281 137.824219 113.6875 138.421875 C 112.765625 139.019531 111.871094 139.664062 111.011719 140.351562 C 110.152344 141.039062 109.328125 141.765625 108.539062 142.535156 C 107.75 143.304688 107.003906 144.109375 106.296875 144.953125 C 105.589844 145.796875 104.925781 146.675781 104.308594 147.585938 C 103.6875 148.496094 103.113281 149.433594 102.585938 150.402344 C 102.0625 151.367188 101.585938 152.359375 101.15625 153.375 C 100.730469 154.386719 100.355469 155.421875 100.03125 156.472656 C 99.707031 157.527344 99.433594 158.589844 99.21875 159.671875 C 99 160.75 98.835938 161.835938 98.726562 162.933594 C 98.617188 164.027344 98.5625 165.125 98.5625 166.226562 C 98.5625 167.328125 98.617188 168.425781 98.726562 169.523438 C 98.835938 170.617188 99 171.703125 99.21875 172.785156 C 99.433594 173.863281 99.707031 174.929688 100.03125 175.980469 C 100.355469 177.03125 100.730469 178.066406 101.15625 179.082031 C 101.585938 180.09375 102.0625 181.085938 102.585938 182.054688 C 103.113281 183.019531 103.6875 183.960938 104.308594 184.867188 C 104.925781 185.777344 105.589844 186.65625 106.296875 187.5 C 107.003906 188.34375 107.75 189.148438 108.539062 189.917969 C 109.328125 190.6875 110.152344 191.417969 111.011719 192.101562 C 111.871094 192.789062 112.765625 193.433594 113.6875 194.03125 C 114.613281 194.628906 115.5625 195.179688 116.542969 195.683594 C 117.523438 196.1875 118.523438 196.640625 119.550781 197.042969 C 120.574219 197.445312 121.617188 197.796875 122.675781 198.097656 C 123.734375 198.394531 124.804688 198.640625 125.890625 198.832031 C 126.972656 199.027344 128.066406 199.164062 129.164062 199.246094 C 130.261719 199.332031 131.359375 199.359375 132.460938 199.332031 L 228.933594 199.332031 C 230.015625 199.332031 231.097656 199.277344 232.175781 199.171875 C 233.253906 199.0625 234.328125 198.902344 235.390625 198.691406 C 236.453125 198.480469 237.503906 198.214844 238.539062 197.898438 C 239.578125 197.582031 240.59375 197.21875 241.597656 196.800781 C 242.597656 196.386719 243.578125 195.921875 244.53125 195.410156 C 245.488281 194.898438 246.417969 194.34375 247.316406 193.742188 C 248.21875 193.136719 249.085938 192.492188 249.925781 191.804688 C 250.761719 191.117188 251.566406 190.390625 252.332031 189.621094 C 253.097656 188.855469 253.824219 188.054688 254.511719 187.214844 C 255.199219 186.378906 255.84375 185.507812 256.445312 184.605469 C 257.050781 183.703125 257.605469 182.777344 258.117188 181.820312 C 258.628906 180.863281 259.089844 179.886719 259.507812 178.882812 C 259.921875 177.882812 260.285156 176.863281 260.601562 175.824219 C 260.914062 174.789062 261.179688 173.738281 261.390625 172.675781 C 261.601562 171.613281 261.761719 170.539062 261.867188 169.460938 C 261.976562 168.382812 262.027344 167.300781 262.03125 166.21875 Z M 262.03125 166.21875 "/><path style=" stroke:none;fill-rule:nonzero;fill:#000000;fill-opacity:1;" d="M 104.667969 166.21875 C 104.671875 165.308594 104.71875 164.398438 104.8125 163.492188 C 104.902344 162.585938 105.039062 161.6875 105.21875 160.796875 C 105.398438 159.902344 105.621094 159.019531 105.886719 158.148438 C 106.15625 157.277344 106.460938 156.421875 106.8125 155.582031 C 107.164062 154.742188 107.550781 153.921875 107.984375 153.117188 C 108.414062 152.316406 108.882812 151.535156 109.386719 150.777344 C 109.894531 150.023438 110.4375 149.292969 111.015625 148.589844 C 111.59375 147.886719 112.203125 147.210938 112.847656 146.566406 C 113.492188 145.921875 114.164062 145.3125 114.867188 144.734375 C 115.570312 144.15625 116.300781 143.613281 117.058594 143.109375 C 117.816406 142.601562 118.59375 142.132812 119.398438 141.703125 C 120.199219 141.273438 121.023438 140.882812 121.863281 140.53125 C 122.703125 140.183594 123.558594 139.875 124.429688 139.609375 C 125.300781 139.34375 126.183594 139.121094 127.074219 138.9375 C 127.96875 138.757812 128.867188 138.625 129.773438 138.53125 C 130.679688 138.441406 131.585938 138.390625 132.496094 138.390625 L 228.933594 138.390625 C 229.847656 138.390625 230.757812 138.433594 231.664062 138.523438 C 232.574219 138.613281 233.476562 138.75 234.371094 138.929688 C 235.269531 139.105469 236.152344 139.328125 237.027344 139.59375 C 237.902344 139.859375 238.757812 140.167969 239.601562 140.515625 C 240.445312 140.867188 241.269531 141.257812 242.074219 141.6875 C 242.882812 142.117188 243.664062 142.585938 244.421875 143.09375 C 245.183594 143.601562 245.914062 144.144531 246.621094 144.726562 C 247.324219 145.304688 248 145.917969 248.648438 146.5625 C 249.292969 147.210938 249.90625 147.886719 250.484375 148.59375 C 251.0625 149.296875 251.605469 150.03125 252.113281 150.789062 C 252.621094 151.550781 253.089844 152.332031 253.519531 153.136719 C 253.949219 153.941406 254.339844 154.769531 254.691406 155.613281 C 255.039062 156.457031 255.347656 157.3125 255.613281 158.1875 C 255.878906 159.0625 256.097656 159.945312 256.277344 160.84375 C 256.453125 161.738281 256.589844 162.640625 256.679688 163.550781 C 256.769531 164.457031 256.8125 165.371094 256.8125 166.28125 C 256.8125 167.195312 256.769531 168.105469 256.679688 169.015625 C 256.589844 169.925781 256.453125 170.828125 256.277344 171.722656 C 256.097656 172.617188 255.878906 173.503906 255.613281 174.378906 C 255.347656 175.25 255.039062 176.109375 254.691406 176.953125 C 254.339844 177.796875 253.949219 178.621094 253.519531 179.429688 C 253.089844 180.234375 252.621094 181.015625 252.113281 181.773438 C 251.605469 182.535156 251.0625 183.265625 250.484375 183.972656 C 249.90625 184.679688 249.292969 185.355469 248.648438 186 C 248 186.648438 247.324219 187.261719 246.621094 187.839844 C 245.914062 188.417969 245.183594 188.964844 244.421875 189.46875 C 243.664062 189.976562 242.882812 190.449219 242.074219 190.878906 C 241.269531 191.308594 240.445312 191.699219 239.601562 192.050781 C 238.757812 192.398438 237.902344 192.707031 237.027344 192.972656 C 236.152344 193.238281 235.269531 193.460938 234.371094 193.636719 C 233.476562 193.816406 232.574219 193.949219 231.664062 194.039062 C 230.757812 194.128906 229.847656 194.175781 228.933594 194.175781 L 132.460938 194.175781 C 131.546875 194.171875 130.636719 194.121094 129.730469 194.03125 C 128.824219 193.9375 127.921875 193.796875 127.027344 193.617188 C 126.132812 193.433594 125.25 193.210938 124.378906 192.941406 C 123.503906 192.671875 122.648438 192.363281 121.808594 192.011719 C 120.964844 191.65625 120.144531 191.265625 119.339844 190.832031 C 118.535156 190.398438 117.757812 189.925781 117 189.417969 C 116.242188 188.910156 115.511719 188.363281 114.808594 187.78125 C 114.105469 187.199219 113.433594 186.585938 112.789062 185.9375 C 112.144531 185.292969 111.535156 184.613281 110.957031 183.90625 C 110.382812 183.199219 109.839844 182.46875 109.335938 181.707031 C 108.832031 180.949219 108.363281 180.164062 107.933594 179.359375 C 107.507812 178.554688 107.121094 177.726562 106.773438 176.882812 C 106.425781 176.039062 106.117188 175.183594 105.855469 174.308594 C 105.59375 173.433594 105.371094 172.550781 105.195312 171.65625 C 105.019531 170.757812 104.886719 169.855469 104.800781 168.949219 C 104.710938 168.039062 104.667969 167.128906 104.667969 166.21875 Z M 254.941406 166.21875 C 254.941406 165.367188 254.894531 164.519531 254.808594 163.675781 C 254.722656 162.828125 254.597656 161.988281 254.429688 161.15625 C 254.261719 160.324219 254.050781 159.5 253.804688 158.6875 C 253.554688 157.875 253.269531 157.078125 252.941406 156.292969 C 252.613281 155.507812 252.25 154.742188 251.847656 153.992188 C 251.445312 153.242188 251.011719 152.515625 250.539062 151.808594 C 250.066406 151.105469 249.558594 150.421875 249.019531 149.765625 C 248.480469 149.109375 247.910156 148.480469 247.308594 147.878906 C 246.707031 147.277344 246.078125 146.707031 245.421875 146.167969 C 244.765625 145.628906 244.085938 145.125 243.378906 144.648438 C 242.671875 144.175781 241.945312 143.742188 241.195312 143.339844 C 240.445312 142.9375 239.679688 142.574219 238.894531 142.246094 C 238.109375 141.917969 237.3125 141.632812 236.5 141.382812 C 235.6875 141.136719 234.863281 140.925781 234.03125 140.757812 C 233.199219 140.589844 232.359375 140.464844 231.511719 140.378906 C 230.667969 140.292969 229.820312 140.246094 228.96875 140.246094 L 132.496094 140.246094 C 131.644531 140.246094 130.792969 140.285156 129.945312 140.371094 C 129.097656 140.453125 128.253906 140.578125 127.417969 140.746094 C 126.582031 140.914062 125.757812 141.121094 124.941406 141.367188 C 124.125 141.617188 123.324219 141.902344 122.535156 142.230469 C 121.75 142.554688 120.980469 142.921875 120.226562 143.320312 C 119.476562 143.722656 118.746094 144.164062 118.035156 144.636719 C 117.328125 145.109375 116.644531 145.617188 115.984375 146.160156 C 115.324219 146.699219 114.695312 147.269531 114.09375 147.875 C 113.488281 148.476562 112.917969 149.109375 112.375 149.765625 C 111.835938 150.425781 111.328125 151.109375 110.855469 151.820312 C 110.382812 152.527344 109.945312 153.257812 109.542969 154.011719 C 109.140625 154.761719 108.777344 155.53125 108.449219 156.320312 C 108.125 157.109375 107.835938 157.910156 107.589844 158.726562 C 107.34375 159.542969 107.136719 160.367188 106.96875 161.203125 C 106.800781 162.039062 106.675781 162.882812 106.59375 163.730469 C 106.511719 164.578125 106.46875 165.429688 106.46875 166.28125 C 106.46875 167.136719 106.511719 167.984375 106.59375 168.835938 C 106.675781 169.683594 106.800781 170.523438 106.96875 171.363281 C 107.136719 172.199219 107.34375 173.023438 107.589844 173.839844 C 107.835938 174.65625 108.125 175.457031 108.449219 176.246094 C 108.777344 177.03125 109.140625 177.800781 109.542969 178.554688 C 109.945312 179.304688 110.382812 180.035156 110.855469 180.746094 C 111.328125 181.453125 111.835938 182.140625 112.375 182.796875 C 112.917969 183.457031 113.488281 184.089844 114.09375 184.691406 C 114.695312 185.292969 115.324219 185.867188 115.984375 186.40625 C 116.644531 186.949219 117.328125 187.457031 118.035156 187.929688 C 118.746094 188.402344 119.476562 188.839844 120.226562 189.242188 C 120.980469 189.644531 121.75 190.011719 122.535156 190.335938 C 123.324219 190.664062 124.125 190.949219 124.941406 191.199219 C 125.757812 191.445312 126.582031 191.652344 127.417969 191.820312 C 128.253906 191.984375 129.097656 192.109375 129.945312 192.195312 C 130.792969 192.277344 131.644531 192.320312 132.496094 192.320312 L 228.933594 192.320312 C 229.785156 192.320312 230.636719 192.277344 231.488281 192.191406 C 232.335938 192.105469 233.179688 191.976562 234.015625 191.808594 C 234.851562 191.640625 235.679688 191.433594 236.496094 191.183594 C 237.3125 190.933594 238.113281 190.644531 238.902344 190.316406 C 239.691406 189.988281 240.460938 189.625 241.210938 189.21875 C 241.964844 188.816406 242.695312 188.378906 243.402344 187.902344 C 244.113281 187.425781 244.796875 186.917969 245.457031 186.375 C 246.113281 185.832031 246.746094 185.257812 247.347656 184.65625 C 247.949219 184.050781 248.523438 183.417969 249.0625 182.757812 C 249.601562 182.097656 250.109375 181.410156 250.582031 180.703125 C 251.058594 179.992188 251.496094 179.257812 251.894531 178.507812 C 252.296875 177.753906 252.660156 176.980469 252.988281 176.191406 C 253.3125 175.402344 253.597656 174.601562 253.84375 173.785156 C 254.09375 172.96875 254.300781 172.140625 254.464844 171.300781 C 254.628906 170.464844 254.753906 169.621094 254.835938 168.773438 C 254.921875 167.921875 254.960938 167.070312 254.960938 166.21875 Z M 254.941406 166.21875 "/><path style=" stroke:none;fill-rule:nonzero;fill:#5b3d29;fill-opacity:1;" d="M 111.738281 166.21875 C 111.738281 165.535156 111.773438 164.855469 111.839844 164.179688 C 111.910156 163.5 112.011719 162.828125 112.144531 162.160156 C 112.277344 161.492188 112.445312 160.832031 112.644531 160.179688 C 112.839844 159.53125 113.070312 158.890625 113.332031 158.261719 C 113.59375 157.632812 113.886719 157.015625 114.207031 156.417969 C 114.527344 155.816406 114.878906 155.234375 115.257812 154.667969 C 115.636719 154.101562 116.042969 153.554688 116.476562 153.027344 C 116.90625 152.5 117.363281 151.996094 117.847656 151.515625 C 118.328125 151.035156 118.832031 150.578125 119.359375 150.144531 C 119.886719 149.714844 120.433594 149.308594 121 148.929688 C 121.566406 148.550781 122.148438 148.203125 122.75 147.882812 C 123.351562 147.558594 123.964844 147.269531 124.59375 147.007812 C 125.222656 146.746094 125.863281 146.519531 126.515625 146.320312 C 127.167969 146.121094 127.828125 145.957031 128.496094 145.824219 C 129.164062 145.691406 129.835938 145.589844 130.515625 145.523438 C 131.191406 145.457031 131.871094 145.421875 132.554688 145.421875 L 228.933594 145.421875 C 229.601562 145.441406 230.265625 145.492188 230.929688 145.578125 C 231.59375 145.660156 232.25 145.777344 232.902344 145.925781 C 233.554688 146.070312 234.199219 146.25 234.835938 146.460938 C 235.46875 146.667969 236.09375 146.910156 236.707031 147.179688 C 237.316406 147.449219 237.914062 147.746094 238.5 148.074219 C 239.082031 148.402344 239.648438 148.757812 240.195312 149.136719 C 240.746094 149.519531 241.273438 149.925781 241.785156 150.359375 C 242.292969 150.792969 242.78125 151.25 243.25 151.730469 C 243.714844 152.210938 244.15625 152.710938 244.574219 153.234375 C 244.992188 153.753906 245.382812 154.296875 245.746094 154.855469 C 246.113281 155.417969 246.449219 155.992188 246.761719 156.585938 C 247.070312 157.179688 247.351562 157.785156 247.601562 158.40625 C 247.851562 159.023438 248.074219 159.65625 248.265625 160.296875 C 248.453125 160.9375 248.613281 161.585938 248.742188 162.242188 C 248.871094 162.898438 248.964844 163.558594 249.03125 164.226562 C 249.09375 164.890625 249.125 165.558594 249.125 166.226562 C 249.125 166.894531 249.09375 167.5625 249.03125 168.230469 C 248.964844 168.894531 248.871094 169.554688 248.742188 170.210938 C 248.613281 170.867188 248.453125 171.515625 248.265625 172.15625 C 248.074219 172.800781 247.851562 173.429688 247.601562 174.050781 C 247.351562 174.667969 247.070312 175.273438 246.761719 175.867188 C 246.449219 176.460938 246.113281 177.035156 245.746094 177.597656 C 245.382812 178.15625 244.992188 178.699219 244.574219 179.222656 C 244.15625 179.742188 243.714844 180.246094 243.25 180.726562 C 242.78125 181.203125 242.292969 181.660156 241.785156 182.09375 C 241.273438 182.527344 240.746094 182.933594 240.195312 183.316406 C 239.648438 183.699219 239.082031 184.050781 238.5 184.378906 C 237.914062 184.707031 237.316406 185.003906 236.707031 185.273438 C 236.09375 185.542969 235.46875 185.785156 234.835938 185.992188 C 234.199219 186.203125 233.554688 186.382812 232.902344 186.53125 C 232.25 186.675781 231.59375 186.792969 230.929688 186.878906 C 230.265625 186.960938 229.601562 187.011719 228.933594 187.035156 L 132.460938 187.035156 C 131.78125 187.03125 131.101562 186.992188 130.425781 186.921875 C 129.75 186.851562 129.082031 186.75 128.414062 186.613281 C 127.75 186.480469 127.089844 186.3125 126.441406 186.109375 C 125.792969 185.910156 125.152344 185.679688 124.527344 185.417969 C 123.898438 185.15625 123.285156 184.863281 122.6875 184.539062 C 122.089844 184.21875 121.507812 183.867188 120.945312 183.488281 C 120.382812 183.109375 119.835938 182.703125 119.3125 182.269531 C 118.789062 181.835938 118.285156 181.378906 117.808594 180.898438 C 117.328125 180.417969 116.871094 179.914062 116.441406 179.386719 C 116.011719 178.859375 115.609375 178.316406 115.230469 177.75 C 114.855469 177.183594 114.507812 176.601562 114.1875 176 C 113.867188 175.402344 113.578125 174.789062 113.320312 174.160156 C 113.058594 173.53125 112.832031 172.890625 112.632812 172.242188 C 112.4375 171.589844 112.269531 170.933594 112.136719 170.265625 C 112.007812 169.601562 111.90625 168.929688 111.839844 168.25 C 111.773438 167.574219 111.738281 166.898438 111.738281 166.21875 Z M 247.875 166.21875 C 247.875 165.597656 247.84375 164.980469 247.78125 164.363281 C 247.71875 163.746094 247.628906 163.132812 247.507812 162.523438 C 247.386719 161.914062 247.234375 161.316406 247.054688 160.722656 C 246.875 160.128906 246.664062 159.542969 246.425781 158.972656 C 246.191406 158.398438 245.925781 157.839844 245.632812 157.292969 C 245.339844 156.746094 245.019531 156.214844 244.675781 155.699219 C 244.332031 155.183594 243.960938 154.6875 243.570312 154.207031 C 243.175781 153.726562 242.757812 153.269531 242.320312 152.828125 C 241.882812 152.390625 241.421875 151.976562 240.945312 151.582031 C 240.464844 151.1875 239.96875 150.820312 239.453125 150.472656 C 238.9375 150.128906 238.40625 149.8125 237.859375 149.519531 C 237.3125 149.226562 236.75 148.960938 236.179688 148.722656 C 235.605469 148.484375 235.023438 148.277344 234.429688 148.097656 C 233.835938 147.914062 233.234375 147.765625 232.625 147.644531 C 232.019531 147.523438 231.40625 147.429688 230.789062 147.367188 C 230.171875 147.308594 229.554688 147.277344 228.933594 147.277344 L 132.460938 147.277344 C 131.828125 147.257812 131.195312 147.269531 130.5625 147.3125 C 129.929688 147.355469 129.304688 147.429688 128.679688 147.535156 C 128.054688 147.644531 127.4375 147.78125 126.828125 147.949219 C 126.214844 148.117188 125.617188 148.316406 125.023438 148.542969 C 124.433594 148.773438 123.855469 149.03125 123.292969 149.316406 C 122.726562 149.605469 122.175781 149.917969 121.644531 150.257812 C 121.109375 150.601562 120.597656 150.96875 120.097656 151.359375 C 119.601562 151.753906 119.125 152.171875 118.671875 152.613281 C 118.21875 153.054688 117.785156 153.515625 117.378906 154 C 116.96875 154.484375 116.585938 154.988281 116.226562 155.507812 C 115.871094 156.03125 115.539062 156.570312 115.234375 157.125 C 114.929688 157.683594 114.65625 158.25 114.40625 158.835938 C 114.160156 159.417969 113.945312 160.011719 113.757812 160.617188 C 113.570312 161.222656 113.414062 161.835938 113.285156 162.457031 C 113.160156 163.078125 113.066406 163.703125 113.003906 164.332031 C 112.9375 164.960938 112.90625 165.59375 112.90625 166.226562 C 112.90625 166.859375 112.9375 167.492188 113.003906 168.121094 C 113.066406 168.753906 113.160156 169.378906 113.285156 170 C 113.414062 170.621094 113.570312 171.230469 113.757812 171.835938 C 113.945312 172.441406 114.160156 173.035156 114.40625 173.621094 C 114.65625 174.203125 114.929688 174.773438 115.234375 175.328125 C 115.539062 175.882812 115.871094 176.421875 116.226562 176.945312 C 116.585938 177.46875 116.96875 177.972656 117.378906 178.453125 C 117.785156 178.9375 118.21875 179.402344 118.671875 179.84375 C 119.125 180.28125 119.601562 180.699219 120.097656 181.09375 C 120.597656 181.484375 121.109375 181.855469 121.644531 182.195312 C 122.175781 182.535156 122.726562 182.851562 123.292969 183.136719 C 123.855469 183.421875 124.433594 183.679688 125.023438 183.910156 C 125.617188 184.136719 126.214844 184.335938 126.828125 184.503906 C 127.4375 184.671875 128.054688 184.8125 128.679688 184.917969 C 129.304688 185.023438 129.929688 185.097656 130.5625 185.144531 C 131.195312 185.1875 131.828125 185.199219 132.460938 185.179688 L 228.933594 185.179688 C 229.554688 185.175781 230.171875 185.148438 230.789062 185.085938 C 231.40625 185.023438 232.019531 184.933594 232.628906 184.8125 C 233.238281 184.6875 233.839844 184.539062 234.433594 184.359375 C 235.027344 184.175781 235.609375 183.96875 236.183594 183.730469 C 236.757812 183.492188 237.316406 183.226562 237.863281 182.933594 C 238.410156 182.640625 238.941406 182.320312 239.457031 181.976562 C 239.972656 181.632812 240.472656 181.261719 240.949219 180.867188 C 241.429688 180.472656 241.890625 180.058594 242.328125 179.617188 C 242.765625 179.179688 243.183594 178.71875 243.574219 178.238281 C 243.96875 177.761719 244.339844 177.261719 244.683594 176.746094 C 245.027344 176.230469 245.347656 175.699219 245.636719 175.152344 C 245.929688 174.601562 246.195312 174.042969 246.433594 173.46875 C 246.671875 172.894531 246.878906 172.3125 247.058594 171.71875 C 247.238281 171.125 247.390625 170.523438 247.511719 169.914062 C 247.632812 169.304688 247.722656 168.691406 247.785156 168.074219 C 247.84375 167.457031 247.875 166.839844 247.875 166.21875 Z M 247.875 166.21875 "/><path style=" stroke:none;fill-rule:nonzero;fill:#000000;fill-opacity:1;" d="M 118.804688 166.21875 C 118.808594 165.316406 118.898438 164.421875 119.078125 163.539062 C 119.253906 162.65625 119.515625 161.796875 119.863281 160.964844 C 120.210938 160.132812 120.632812 159.34375 121.136719 158.59375 C 121.636719 157.84375 122.207031 157.152344 122.84375 156.515625 C 123.484375 155.878906 124.175781 155.308594 124.925781 154.808594 C 125.675781 154.308594 126.46875 153.882812 127.300781 153.539062 C 128.132812 153.195312 128.992188 152.933594 129.875 152.757812 C 130.757812 152.578125 131.652344 152.492188 132.554688 152.488281 L 228.933594 152.488281 C 229.8125 152.523438 230.683594 152.636719 231.542969 152.835938 C 232.398438 153.035156 233.230469 153.316406 234.035156 153.675781 C 234.839844 154.035156 235.605469 154.46875 236.324219 154.976562 C 237.046875 155.480469 237.714844 156.050781 238.324219 156.6875 C 238.9375 157.320312 239.484375 158.007812 239.960938 158.746094 C 240.441406 159.488281 240.847656 160.265625 241.175781 161.082031 C 241.507812 161.902344 241.753906 162.742188 241.921875 163.605469 C 242.089844 164.472656 242.175781 165.347656 242.175781 166.226562 C 242.175781 167.109375 242.089844 167.980469 241.921875 168.847656 C 241.753906 169.710938 241.507812 170.554688 241.175781 171.371094 C 240.847656 172.1875 240.441406 172.96875 239.960938 173.707031 C 239.484375 174.445312 238.9375 175.132812 238.324219 175.769531 C 237.714844 176.402344 237.046875 176.972656 236.324219 177.480469 C 235.605469 177.984375 234.839844 178.417969 234.035156 178.777344 C 233.230469 179.136719 232.398438 179.417969 231.542969 179.617188 C 230.683594 179.816406 229.8125 179.933594 228.933594 179.964844 L 132.460938 179.964844 C 131.5625 179.957031 130.671875 179.863281 129.792969 179.683594 C 128.914062 179.5 128.058594 179.234375 127.230469 178.886719 C 126.402344 178.539062 125.617188 178.113281 124.871094 177.609375 C 124.128906 177.109375 123.4375 176.539062 122.804688 175.902344 C 122.171875 175.261719 121.605469 174.570312 121.109375 173.824219 C 120.613281 173.074219 120.191406 172.285156 119.847656 171.453125 C 119.503906 170.625 119.246094 169.769531 119.070312 168.886719 C 118.894531 168.007812 118.808594 167.117188 118.804688 166.21875 Z M 240.804688 166.21875 C 240.804688 165.4375 240.726562 164.667969 240.574219 163.902344 C 240.421875 163.136719 240.195312 162.398438 239.898438 161.675781 C 239.597656 160.957031 239.234375 160.273438 238.800781 159.625 C 238.367188 158.976562 237.875 158.378906 237.324219 157.828125 C 236.773438 157.277344 236.171875 156.785156 235.523438 156.351562 C 234.878906 155.917969 234.191406 155.550781 233.472656 155.253906 C 232.753906 154.953125 232.011719 154.730469 231.246094 154.574219 C 230.484375 154.421875 229.710938 154.34375 228.933594 154.34375 L 132.460938 154.34375 C 131.660156 154.3125 130.867188 154.363281 130.074219 154.492188 C 129.285156 154.621094 128.515625 154.824219 127.769531 155.109375 C 127.019531 155.394531 126.308594 155.75 125.628906 156.179688 C 124.953125 156.609375 124.328125 157.097656 123.75 157.652344 C 123.171875 158.207031 122.65625 158.816406 122.203125 159.472656 C 121.746094 160.132812 121.363281 160.832031 121.050781 161.566406 C 120.734375 162.304688 120.5 163.066406 120.339844 163.847656 C 120.179688 164.632812 120.097656 165.425781 120.097656 166.226562 C 120.097656 167.027344 120.179688 167.820312 120.339844 168.605469 C 120.5 169.390625 120.734375 170.148438 121.050781 170.886719 C 121.363281 171.621094 121.746094 172.320312 122.203125 172.980469 C 122.65625 173.640625 123.171875 174.246094 123.75 174.800781 C 124.328125 175.355469 124.953125 175.847656 125.628906 176.273438 C 126.308594 176.703125 127.019531 177.058594 127.769531 177.34375 C 128.515625 177.628906 129.285156 177.835938 130.074219 177.964844 C 130.867188 178.09375 131.660156 178.140625 132.460938 178.109375 L 228.933594 178.109375 C 229.710938 178.109375 230.484375 178.03125 231.25 177.878906 C 232.015625 177.726562 232.757812 177.5 233.476562 177.199219 C 234.199219 176.898438 234.882812 176.535156 235.53125 176.097656 C 236.179688 175.664062 236.777344 175.171875 237.328125 174.621094 C 237.878906 174.066406 238.371094 173.46875 238.804688 172.820312 C 239.238281 172.171875 239.605469 171.484375 239.902344 170.765625 C 240.199219 170.042969 240.425781 169.300781 240.578125 168.535156 C 240.730469 167.769531 240.804688 166.996094 240.804688 166.21875 Z M 240.804688 166.21875 "/><path style=" stroke:none;fill-rule:nonzero;fill:#5b3d29;fill-opacity:1;" d="M 229.007812 214.324219 C 227.429688 214.324219 225.859375 214.246094 224.292969 214.09375 C 222.722656 213.9375 221.167969 213.707031 219.621094 213.398438 C 218.078125 213.09375 216.550781 212.710938 215.042969 212.253906 C 213.535156 211.796875 212.054688 211.265625 210.597656 210.660156 C 209.140625 210.058594 207.71875 209.386719 206.328125 208.644531 C 204.941406 207.902344 203.589844 207.09375 202.28125 206.214844 C 200.96875 205.339844 199.707031 204.402344 198.488281 203.40625 C 197.269531 202.40625 196.105469 201.347656 194.992188 200.234375 C 193.875 199.121094 192.820312 197.953125 191.820312 196.734375 C 190.820312 195.519531 189.882812 194.253906 189.007812 192.945312 C 188.132812 191.632812 187.324219 190.285156 186.582031 188.894531 C 185.839844 187.503906 185.164062 186.082031 184.5625 184.628906 C 183.960938 183.171875 183.429688 181.691406 182.972656 180.183594 C 182.515625 178.675781 182.132812 177.148438 181.824219 175.601562 C 181.519531 174.058594 181.285156 172.5 181.132812 170.933594 C 180.976562 169.363281 180.902344 167.792969 180.902344 166.21875 C 180.902344 164.640625 180.976562 163.070312 181.132812 161.503906 C 181.285156 159.933594 181.519531 158.378906 181.824219 156.832031 C 182.132812 155.289062 182.515625 153.761719 182.972656 152.253906 C 183.429688 150.746094 183.960938 149.265625 184.5625 147.808594 C 185.164062 146.351562 185.839844 144.929688 186.582031 143.539062 C 187.324219 142.152344 188.132812 140.800781 189.007812 139.492188 C 189.882812 138.179688 190.820312 136.917969 191.820312 135.699219 C 192.820312 134.480469 193.875 133.316406 194.992188 132.203125 C 196.105469 131.085938 197.269531 130.03125 198.488281 129.03125 C 199.707031 128.03125 200.96875 127.09375 202.28125 126.21875 C 203.589844 125.34375 204.941406 124.535156 206.328125 123.792969 C 207.71875 123.050781 209.140625 122.375 210.597656 121.773438 C 212.054688 121.171875 213.535156 120.640625 215.042969 120.183594 C 216.550781 119.726562 218.078125 119.34375 219.621094 119.035156 C 221.167969 118.730469 222.722656 118.496094 224.292969 118.34375 C 225.859375 118.1875 227.429688 118.113281 229.007812 118.113281 C 230.582031 118.113281 232.152344 118.1875 233.722656 118.34375 C 235.289062 118.496094 236.847656 118.730469 238.390625 119.035156 C 239.9375 119.34375 241.464844 119.726562 242.972656 120.183594 C 244.480469 120.640625 245.960938 121.171875 247.417969 121.773438 C 248.871094 122.375 250.292969 123.050781 251.683594 123.792969 C 253.074219 124.535156 254.421875 125.34375 255.734375 126.21875 C 257.042969 127.09375 258.308594 128.03125 259.523438 129.03125 C 260.742188 130.03125 261.910156 131.085938 263.023438 132.203125 C 264.136719 133.316406 265.195312 134.480469 266.191406 135.699219 C 267.191406 136.917969 268.128906 138.179688 269.003906 139.492188 C 269.878906 140.800781 270.691406 142.152344 271.433594 143.539062 C 272.175781 144.929688 272.847656 146.351562 273.449219 147.808594 C 274.054688 149.265625 274.585938 150.746094 275.042969 152.253906 C 275.5 153.761719 275.882812 155.289062 276.1875 156.832031 C 276.496094 158.378906 276.726562 159.933594 276.882812 161.503906 C 277.035156 163.070312 277.113281 164.640625 277.113281 166.21875 C 277.113281 167.792969 277.035156 169.363281 276.882812 170.933594 C 276.726562 172.5 276.496094 174.058594 276.1875 175.601562 C 275.882812 177.148438 275.5 178.675781 275.042969 180.183594 C 274.585938 181.691406 274.054688 183.171875 273.449219 184.628906 C 272.847656 186.082031 272.175781 187.503906 271.433594 188.894531 C 270.691406 190.285156 269.878906 191.632812 269.003906 192.945312 C 268.128906 194.253906 267.191406 195.519531 266.191406 196.734375 C 265.195312 197.953125 264.136719 199.121094 263.023438 200.234375 C 261.910156 201.347656 260.742188 202.40625 259.523438 203.40625 C 258.308594 204.402344 257.042969 205.339844 255.734375 206.214844 C 254.421875 207.09375 253.074219 207.902344 251.683594 208.644531 C 250.292969 209.386719 248.871094 210.058594 247.417969 210.660156 C 245.960938 211.265625 244.480469 211.796875 242.972656 212.253906 C 241.464844 212.710938 239.9375 213.09375 238.390625 213.398438 C 236.847656 213.707031 235.289062 213.9375 233.722656 214.09375 C 232.152344 214.246094 230.582031 214.324219 229.007812 214.324219 Z M 229.007812 214.324219 "/><path style=" stroke:none;fill-rule:nonzero;fill:#ffffff;fill-opacity:1;" d="M 229.007812 178.945312 C 228.171875 178.945312 227.34375 178.863281 226.523438 178.699219 C 225.703125 178.539062 224.910156 178.296875 224.136719 177.976562 C 223.363281 177.65625 222.632812 177.265625 221.9375 176.800781 C 221.242188 176.335938 220.597656 175.808594 220.007812 175.21875 C 219.417969 174.625 218.890625 173.984375 218.425781 173.289062 C 217.960938 172.59375 217.570312 171.859375 217.25 171.089844 C 216.929688 170.316406 216.6875 169.519531 216.523438 168.699219 C 216.363281 167.882812 216.28125 167.054688 216.28125 166.21875 C 216.28125 165.382812 216.363281 164.554688 216.523438 163.734375 C 216.6875 162.914062 216.929688 162.121094 217.25 161.347656 C 217.570312 160.574219 217.960938 159.84375 218.425781 159.148438 C 218.890625 158.453125 219.417969 157.808594 220.007812 157.21875 C 220.597656 156.628906 221.242188 156.101562 221.9375 155.636719 C 222.632812 155.171875 223.363281 154.78125 224.136719 154.460938 C 224.910156 154.140625 225.703125 153.898438 226.523438 153.734375 C 227.34375 153.574219 228.171875 153.492188 229.007812 153.492188 C 229.84375 153.492188 230.671875 153.574219 231.488281 153.734375 C 232.308594 153.898438 233.105469 154.140625 233.878906 154.460938 C 234.648438 154.78125 235.382812 155.171875 236.078125 155.636719 C 236.773438 156.101562 237.414062 156.628906 238.007812 157.21875 C 238.597656 157.808594 239.125 158.453125 239.589844 159.148438 C 240.054688 159.84375 240.445312 160.574219 240.765625 161.347656 C 241.085938 162.121094 241.324219 162.914062 241.488281 163.734375 C 241.652344 164.554688 241.734375 165.382812 241.734375 166.21875 C 241.734375 167.054688 241.652344 167.882812 241.488281 168.699219 C 241.324219 169.519531 241.085938 170.316406 240.765625 171.089844 C 240.445312 171.859375 240.054688 172.59375 239.589844 173.289062 C 239.125 173.984375 238.597656 174.625 238.007812 175.21875 C 237.414062 175.808594 236.773438 176.335938 236.078125 176.800781 C 235.382812 177.265625 234.648438 177.65625 233.878906 177.976562 C 233.105469 178.296875 232.308594 178.539062 231.488281 178.699219 C 230.671875 178.863281 229.84375 178.945312 229.007812 178.945312 Z M 229.007812 178.945312 "/><path style=" stroke:none;fill-rule:nonzero;fill:#000000;fill-opacity:1;" d="M 131.886719 178.183594 C 131.101562 178.183594 130.320312 178.109375 129.550781 177.953125 C 128.78125 177.800781 128.03125 177.574219 127.304688 177.273438 C 126.582031 176.972656 125.890625 176.605469 125.238281 176.167969 C 124.585938 175.730469 123.980469 175.234375 123.425781 174.679688 C 122.867188 174.125 122.371094 173.519531 121.9375 172.867188 C 121.5 172.210938 121.132812 171.523438 120.832031 170.796875 C 120.53125 170.070312 120.300781 169.324219 120.148438 168.550781 C 119.996094 167.78125 119.917969 167.003906 119.917969 166.21875 C 119.917969 165.433594 119.996094 164.652344 120.148438 163.882812 C 120.300781 163.113281 120.53125 162.363281 120.832031 161.636719 C 121.132812 160.914062 121.5 160.222656 121.9375 159.570312 C 122.371094 158.917969 122.867188 158.3125 123.425781 157.757812 C 123.980469 157.199219 124.585938 156.703125 125.238281 156.269531 C 125.890625 155.832031 126.582031 155.464844 127.304688 155.164062 C 128.03125 154.863281 128.78125 154.636719 129.550781 154.480469 C 130.320312 154.328125 131.101562 154.25 131.886719 154.25 C 132.671875 154.25 133.449219 154.328125 134.21875 154.480469 C 134.992188 154.636719 135.738281 154.863281 136.464844 155.164062 C 137.191406 155.464844 137.878906 155.832031 138.535156 156.269531 C 139.1875 156.703125 139.792969 157.199219 140.347656 157.757812 C 140.902344 158.3125 141.398438 158.917969 141.835938 159.570312 C 142.273438 160.222656 142.640625 160.914062 142.941406 161.636719 C 143.242188 162.363281 143.46875 163.113281 143.621094 163.882812 C 143.773438 164.652344 143.851562 165.433594 143.851562 166.21875 C 143.851562 167.003906 143.773438 167.78125 143.621094 168.550781 C 143.46875 169.324219 143.242188 170.070312 142.941406 170.796875 C 142.640625 171.523438 142.273438 172.210938 141.835938 172.867188 C 141.398438 173.519531 140.902344 174.125 140.347656 174.679688 C 139.792969 175.234375 139.1875 175.730469 138.535156 176.167969 C 137.878906 176.605469 137.191406 176.972656 136.464844 177.273438 C 135.738281 177.574219 134.992188 177.800781 134.21875 177.953125 C 133.449219 178.109375 132.671875 178.183594 131.886719 178.183594 Z M 131.886719 178.183594 "/><g style="fill:#5b3d29;fill-opacity:1;"><g transform="translate(137.793753, 231.797709)"><path style="stroke:none" d="M 1.65625 -0.859375 L 2.03125 -0.859375 C 2.226562 -0.859375 2.375 -0.925781 2.46875 -1.0625 C 2.5625 -1.195312 2.609375 -1.441406 2.609375 -1.796875 L 2.609375 -5.40625 C 2.609375 -5.789062 2.5625 -6.0625 2.46875 -6.21875 C 2.375 -6.382812 2.210938 -6.46875 1.984375 -6.46875 L 1.65625 -6.46875 Z M 0.546875 0 L 0.546875 -7.3125 L 2.1875 -7.3125 C 2.726562 -7.3125 3.117188 -7.148438 3.359375 -6.828125 C 3.597656 -6.515625 3.71875 -6.050781 3.71875 -5.4375 L 3.71875 -2.140625 C 3.71875 -1.398438 3.597656 -0.859375 3.359375 -0.515625 C 3.117188 -0.171875 2.71875 0 2.15625 0 Z M 0.546875 0 "/></g></g><g style="fill:#5b3d29;fill-opacity:1;"><g transform="translate(144.634756, 231.797709)"><path style="stroke:none" d="M 0.59375 0 L 0.59375 -7.3125 L 1.703125 -7.3125 L 1.703125 0 Z M 0.59375 0 "/></g></g><g style="fill:#5b3d29;fill-opacity:1;"><g transform="translate(149.593904, 231.797709)"><path style="stroke:none" d="M 1.921875 0.078125 C 1.460938 0.078125 1.101562 -0.101562 0.84375 -0.46875 C 0.582031 -0.832031 0.453125 -1.390625 0.453125 -2.140625 L 0.453125 -5.328125 C 0.453125 -6.003906 0.582031 -6.519531 0.84375 -6.875 C 1.113281 -7.226562 1.535156 -7.40625 2.109375 -7.40625 C 2.828125 -7.40625 3.285156 -7.132812 3.484375 -6.59375 C 3.597656 -6.269531 3.65625 -5.832031 3.65625 -5.28125 L 3.65625 -4.765625 L 2.625 -4.765625 L 2.625 -5.53125 C 2.625 -5.863281 2.585938 -6.097656 2.515625 -6.234375 C 2.441406 -6.367188 2.304688 -6.4375 2.109375 -6.4375 C 1.921875 -6.4375 1.785156 -6.351562 1.703125 -6.1875 C 1.617188 -6.03125 1.578125 -5.742188 1.578125 -5.328125 L 1.578125 -2.15625 C 1.578125 -1.675781 1.613281 -1.34375 1.6875 -1.15625 C 1.757812 -0.96875 1.898438 -0.875 2.109375 -0.875 C 2.316406 -0.875 2.460938 -0.972656 2.546875 -1.171875 C 2.640625 -1.378906 2.6875 -1.722656 2.6875 -2.203125 L 2.6875 -3.1875 L 2.125 -3.1875 L 2.125 -4 L 3.65625 -4 L 3.65625 0 L 3.15625 0 L 2.984375 -0.71875 C 2.929688 -0.46875 2.804688 -0.269531 2.609375 -0.125 C 2.410156 0.0078125 2.179688 0.078125 1.921875 0.078125 Z M 1.921875 0.078125 "/></g></g><g style="fill:#5b3d29;fill-opacity:1;"><g transform="translate(156.414136, 231.797709)"><path style="stroke:none" d="M 0.59375 0 L 0.59375 -7.3125 L 1.703125 -7.3125 L 1.703125 0 Z M 0.59375 0 "/></g></g><g style="fill:#5b3d29;fill-opacity:1;"><g transform="translate(161.373284, 231.797709)"><path style="stroke:none" d="M 0.921875 0 L 0.921875 -6.359375 L 0.0625 -6.359375 L 0.0625 -7.3125 L 2.859375 -7.3125 L 2.859375 -6.359375 L 2.03125 -6.359375 L 2.03125 0 Z M 0.921875 0 "/></g></g><g style="fill:#5b3d29;fill-opacity:1;"><g transform="translate(166.959717, 231.797709)"><path style="stroke:none" d="M 2.515625 -2.203125 L 2.015625 -5.875 L 2 -5.875 L 1.5625 -2.203125 Z M 0.21875 0 L 1.265625 -7.3125 L 2.734375 -7.3125 L 3.84375 0 L 2.796875 0 L 2.625 -1.3125 L 1.453125 -1.3125 L 1.28125 0 Z M 0.21875 0 "/></g></g><g style="fill:#5b3d29;fill-opacity:1;"><g transform="translate(173.680248, 231.797709)"><path style="stroke:none" d="M 0.546875 0 L 0.546875 -7.3125 L 1.65625 -7.3125 L 1.65625 -0.953125 L 3.078125 -0.953125 L 3.078125 0 Z M 0.546875 0 "/></g></g><g style="fill:#5b3d29;fill-opacity:1;"><g transform="translate(179.507625, 231.797709)"><path style="stroke:none" d=""/></g></g><g style="fill:#5b3d29;fill-opacity:1;"><g transform="translate(183.698245, 231.797709)"><path style="stroke:none" d="M 1.65625 -0.859375 L 2.03125 -0.859375 C 2.226562 -0.859375 2.375 -0.925781 2.46875 -1.0625 C 2.5625 -1.195312 2.609375 -1.441406 2.609375 -1.796875 L 2.609375 -5.40625 C 2.609375 -5.789062 2.5625 -6.0625 2.46875 -6.21875 C 2.375 -6.382812 2.210938 -6.46875 1.984375 -6.46875 L 1.65625 -6.46875 Z M 0.546875 0 L 0.546875 -7.3125 L 2.1875 -7.3125 C 2.726562 -7.3125 3.117188 -7.148438 3.359375 -6.828125 C 3.597656 -6.515625 3.71875 -6.050781 3.71875 -5.4375 L 3.71875 -2.140625 C 3.71875 -1.398438 3.597656 -0.859375 3.359375 -0.515625 C 3.117188 -0.171875 2.71875 0 2.15625 0 Z M 0.546875 0 "/></g></g><g style="fill:#5b3d29;fill-opacity:1;"><g transform="translate(190.539248, 231.797709)"><path style="stroke:none" d="M 2.015625 -3.4375 L 1.65625 -3.453125 L 1.65625 0 L 0.546875 0 L 0.546875 -7.3125 L 2.390625 -7.3125 C 2.773438 -7.3125 3.0625 -7.234375 3.25 -7.078125 C 3.4375 -6.929688 3.554688 -6.71875 3.609375 -6.4375 C 3.671875 -6.164062 3.703125 -5.804688 3.703125 -5.359375 C 3.703125 -4.910156 3.65625 -4.570312 3.5625 -4.34375 C 3.46875 -4.113281 3.296875 -3.957031 3.046875 -3.875 C 3.296875 -3.832031 3.46875 -3.660156 3.5625 -3.359375 C 3.664062 -3.066406 3.71875 -2.453125 3.71875 -1.515625 C 3.71875 -0.578125 3.734375 -0.0703125 3.765625 0 L 2.65625 0 C 2.625 -0.0507812 2.609375 -0.925781 2.609375 -2.625 C 2.609375 -2.945312 2.566406 -3.160156 2.484375 -3.265625 C 2.410156 -3.378906 2.253906 -3.4375 2.015625 -3.4375 Z M 1.671875 -4.3125 L 2.109375 -4.3125 C 2.253906 -4.3125 2.359375 -4.34375 2.421875 -4.40625 C 2.492188 -4.476562 2.539062 -4.59375 2.5625 -4.75 C 2.59375 -4.90625 2.609375 -5.140625 2.609375 -5.453125 L 2.609375 -5.5 C 2.609375 -5.894531 2.570312 -6.15625 2.5 -6.28125 C 2.4375 -6.40625 2.285156 -6.46875 2.046875 -6.46875 L 1.671875 -6.46875 Z M 1.671875 -4.3125 "/></g></g><g style="fill:#5b3d29;fill-opacity:1;"><g transform="translate(197.401022, 231.797709)"><path style="stroke:none" d="M 0.59375 0 L 0.59375 -7.3125 L 1.703125 -7.3125 L 1.703125 0 Z M 0.59375 0 "/></g></g><g style="fill:#5b3d29;fill-opacity:1;"><g transform="translate(202.36017, 231.797709)"><path style="stroke:none" d="M 0.40625 -2.0625 L 0.40625 -2.71875 L 1.453125 -2.71875 L 1.453125 -1.96875 C 1.453125 -1.5625 1.488281 -1.273438 1.5625 -1.109375 C 1.632812 -0.953125 1.765625 -0.875 1.953125 -0.875 C 2.140625 -0.875 2.265625 -0.941406 2.328125 -1.078125 C 2.390625 -1.210938 2.421875 -1.429688 2.421875 -1.734375 C 2.421875 -2.046875 2.363281 -2.316406 2.25 -2.546875 C 2.144531 -2.773438 1.972656 -3.015625 1.734375 -3.265625 L 1.1875 -3.8125 C 0.9375 -4.082031 0.738281 -4.359375 0.59375 -4.640625 C 0.457031 -4.921875 0.390625 -5.25 0.390625 -5.625 C 0.390625 -6.226562 0.503906 -6.675781 0.734375 -6.96875 C 0.972656 -7.257812 1.375 -7.40625 1.9375 -7.40625 C 2.507812 -7.40625 2.894531 -7.234375 3.09375 -6.890625 C 3.300781 -6.546875 3.40625 -6.046875 3.40625 -5.390625 L 3.40625 -4.9375 L 2.375 -4.9375 L 2.375 -5.46875 C 2.375 -5.820312 2.34375 -6.070312 2.28125 -6.21875 C 2.21875 -6.375 2.097656 -6.453125 1.921875 -6.453125 C 1.753906 -6.453125 1.628906 -6.394531 1.546875 -6.28125 C 1.472656 -6.164062 1.4375 -5.988281 1.4375 -5.75 C 1.4375 -5.519531 1.472656 -5.335938 1.546875 -5.203125 C 1.628906 -5.066406 1.773438 -4.890625 1.984375 -4.671875 L 2.578125 -4.015625 C 2.878906 -3.691406 3.109375 -3.359375 3.265625 -3.015625 C 3.421875 -2.679688 3.5 -2.316406 3.5 -1.921875 C 3.5 -1.234375 3.382812 -0.726562 3.15625 -0.40625 C 2.925781 -0.0820312 2.519531 0.078125 1.9375 0.078125 C 1.363281 0.078125 0.960938 -0.101562 0.734375 -0.46875 C 0.515625 -0.832031 0.40625 -1.363281 0.40625 -2.0625 Z M 0.40625 -2.0625 "/></g></g><g style="fill:#5b3d29;fill-opacity:1;"><g transform="translate(208.785753, 231.797709)"><path style="stroke:none" d="M 0.546875 0 L 0.546875 -7.3125 L 1.65625 -7.3125 L 1.65625 -4.359375 L 2.65625 -4.359375 L 2.65625 -7.3125 L 3.78125 -7.3125 L 3.78125 0 L 2.65625 0 L 2.65625 -3.40625 L 1.65625 -3.40625 L 1.65625 0 Z M 0.546875 0 "/></g></g><g style="fill:#5b3d29;fill-opacity:1;"><g transform="translate(215.772153, 231.797709)"><path style="stroke:none" d="M 0.921875 0 L 0.921875 -6.359375 L 0.0625 -6.359375 L 0.0625 -7.3125 L 2.859375 -7.3125 L 2.859375 -6.359375 L 2.03125 -6.359375 L 2.03125 0 Z M 0.921875 0 "/></g></g><g style="fill:#5b3d29;fill-opacity:1;"><g transform="translate(221.358586, 231.797709)"><path style="stroke:none" d="M 0.59375 0 L 0.59375 -7.3125 L 1.703125 -7.3125 L 1.703125 0 Z M 0.59375 0 "/></g></g></g></svg>